<svg width="22" height="25" viewBox="0 0 22 25" fill="none" xmlns="http://www.w3.org/2000/svg">
<g clip-path="url(#clip0_3795_1026)">
<path d="M16.3038 9.00138C17.9089 10.1518 19.8754 10.8287 21.9991 10.8287V6.73129C21.5972 6.73145 21.1963 6.68938 20.8031 6.60578V9.83104C18.6795 9.83104 16.7133 9.15423 15.1078 8.00388V16.3656C15.1078 20.5486 11.7256 23.9393 7.5539 23.9393C5.99731 23.9393 4.55047 23.4675 3.34863 22.6583C4.72037 24.0646 6.63334 24.9369 8.74963 24.9369C12.9217 24.9369 16.304 21.5462 16.304 17.363V9.00138H16.3038ZM17.7793 4.86759C16.959 3.96905 16.4203 2.80785 16.3038 1.52405V0.99707H15.1704C15.4557 2.62871 16.4289 4.02267 17.7793 4.86759ZM5.98726 19.4485C5.5289 18.846 5.28115 18.1089 5.28231 17.351C5.28231 15.4379 6.82927 13.8867 8.73786 13.8867C9.09349 13.8865 9.44703 13.9413 9.78604 14.0491V9.86C9.38987 9.8056 8.99009 9.78242 8.59048 9.79095V13.0515C8.25129 12.9437 7.89758 12.8889 7.54178 12.8892C5.63328 12.8892 4.08641 14.4403 4.08641 16.3536C4.08641 17.7066 4.85959 18.8778 5.98726 19.4485Z" fill="#FF004F"/>
<path d="M15.1084 8.00379C16.7139 9.15414 18.6799 9.83095 20.8036 9.83095V6.60569C19.6182 6.3525 18.5688 5.73147 17.7798 4.86759C16.4293 4.02259 15.4562 2.62862 15.1709 0.99707H12.1938V17.3628C12.187 19.2708 10.6427 20.8156 8.73825 20.8156C7.61608 20.8156 6.61903 20.2793 5.98765 19.4484C4.86015 18.8778 4.08688 17.7065 4.08688 16.3537C4.08688 14.4405 5.63376 12.8893 7.54226 12.8893C7.90792 12.8893 8.26035 12.9464 8.59095 13.0516V9.79104C4.49242 9.87595 1.19629 13.2335 1.19629 17.3629C1.19629 19.4243 2.01708 21.293 3.34928 22.6584C4.55112 23.4675 5.99788 23.9395 7.55455 23.9395C11.7264 23.9395 15.1085 20.5485 15.1085 16.3656L15.1084 8.00379Z" fill="black"/>
<path d="M20.8033 6.60603V5.73414C19.7344 5.73569 18.6865 5.43555 17.7795 4.86802C18.5824 5.74924 19.6395 6.35692 20.8033 6.60621M15.1705 0.997414C15.1434 0.841515 15.1225 0.684576 15.108 0.526983V0H10.9973V16.3659C10.9907 18.2737 9.44642 19.8185 7.54188 19.8185C7.00195 19.8193 6.46941 19.6927 5.98727 19.449C6.61865 20.2797 7.6157 20.8159 8.73787 20.8159C10.6422 20.8159 12.1867 19.2713 12.1934 17.3634V0.9975L15.1705 0.997414ZM8.59083 9.79138V8.86302C8.24732 8.81597 7.90103 8.79241 7.55434 8.7925C3.38207 8.7925 0 12.1834 0 16.3659C0 18.9883 1.3292 21.2993 3.34907 22.6587C2.01687 21.2934 1.19608 19.4246 1.19608 17.3633C1.19608 13.234 4.49213 9.87629 8.59083 9.79138Z" fill="#00F2EA"/>
</g>
<defs>
<clipPath id="clip0_3795_1026">
<rect width="22" height="25" fill="white"/>
</clipPath>
</defs>
</svg>
